M48
; DRILL file {KiCad (5.1.0)-1} date 2022/1/26 2:49:10
; FORMAT={3:3/ absolute / metric / keep zeros}
; #@! TF.CreationDate,2022-01-26T02:49:10+08:00
; #@! TF.GenerationSoftware,Kicad,Pcbnew,(5.1.0)-1
FMAT,2
METRIC
T1C0.400
T2C0.900
T3C1.000
T4C0.800
T5C1.100
%
G90
G05
T1
X005190Y010990
X006520Y003850
X008100Y009570
X010280Y014620
X010760Y005780
X011200Y003990
X014430Y017110
X014500Y003050
X014500Y000870
X017340Y002040
X017400Y004780
X023910Y013040
X025680Y002130
X028770Y010110
X028930Y006740
T3
X030550Y015550
X030550Y013010
X030550Y010470
X030550Y007930
X030550Y005390
X030550Y002850
T4
X009050Y002050
X011950Y002050
T5
X003000Y012350
X003000Y007750
T2
G00X003800Y015750
M15
G01X002200Y015750
M16
G05
G00X003800Y004350
M15
G01X002200Y004350
M16
G05
T0
M30
